<svg width="256" height="256" viewBox="0 0 256 256" fill="none" xmlns="http://www.w3.org/2000/svg">
<path d="M256 128C256 198.692 198.692 256 128 256C57.3076 256 0 198.692 0 128C0 57.3076 57.3076 0 128 0C198.692 0 256 57.3076 256 128Z" fill="#011627"/>
<path d="M127.719 189.229C112.734 189.229 100.459 186.519 90.8941 181.099C81.3292 175.679 76.5468 169.143 76.5468 161.491C76.5468 157.187 77.8221 153.919 80.3727 151.687C83.0828 149.455 86.5899 148.339 90.8941 148.339C95.5171 148.339 99.2633 150.013 102.133 153.361C105.002 156.549 106.995 160.136 108.111 164.121C109.386 168.107 111.618 171.773 114.806 175.121C118.154 178.309 122.458 179.903 127.719 179.903C132.82 179.903 136.965 178.548 140.153 175.838C143.501 173.128 145.175 169.223 145.175 164.121C145.175 158.382 142.863 153.839 138.24 150.491C133.776 147.144 128.277 144.673 121.741 143.079C115.205 141.325 108.669 139.412 102.133 137.34C95.5968 135.108 90.0173 131.362 85.3943 126.101C80.9307 120.681 78.6989 113.667 78.6989 105.058C78.6989 94.856 83.1625 86.4867 92.0897 79.9508C101.176 73.2554 112.893 69.9077 127.24 69.9077C141.747 69.9077 153.544 72.7771 162.63 78.516C171.876 84.0955 176.499 90.7909 176.499 98.6022C176.499 102.109 175.144 105.058 172.434 107.45C169.884 109.841 166.695 111.036 162.869 111.036C158.406 111.036 154.819 109.442 152.109 106.254C149.399 102.906 147.486 99.3196 146.37 95.4936C145.254 91.5083 143.262 87.9215 140.392 84.7332C137.523 81.3855 133.776 79.7116 129.153 79.7116C124.53 79.7116 120.784 81.3058 117.915 84.4941C115.045 87.5229 113.611 91.2692 113.611 95.7327C113.611 100.196 114.806 103.943 117.197 106.971C119.589 110 122.697 112.312 126.523 113.906C130.349 115.5 134.573 117.015 139.196 118.449C143.819 119.725 148.442 121.239 153.065 122.993C157.848 124.587 162.152 126.579 165.978 128.971C169.804 131.362 172.913 134.789 175.304 139.253C177.695 143.557 178.891 148.818 178.891 155.035C178.891 164.918 174.268 173.128 165.022 179.664C155.776 186.041 143.341 189.229 127.719 189.229Z" fill="white"/>
</svg>
